{
	"asset":{
		"generator":"Khronos glTF Blender I/O v4.0.44",
		"version":"2.0"
	},
	"extensionsUsed":[
		"KHR_materials_specular"
	],
	"scene":0,
	"scenes":[
		{
			"name":"Scene",
			"nodes":[
				8
			]
		}
	],
	"nodes":[
		{
			"mesh":0,
			"name":"Base_Mesh_Base_Material_0"
		},
		{
			"mesh":1,
			"name":"Base_Mesh_Base_Material_0.001"
		},
		{
			"mesh":2,
			"name":"Base_Mesh_Base_Material_0.002"
		},
		{
			"children":[
				0,
				1,
				2
			],
			"name":"Base_Mesh",
			"rotation":[
				-0.70710688829422,
				0,
				0,
				0.7071066498756409
			],
			"scale":[
				100,
				99.99999237060547,
				99.99999237060547
			]
		},
		{
			"mesh":3,
			"name":"VFX_Mesh_VFX_Material_0"
		},
		{
			"children":[
				4
			],
			"name":"VFX_Mesh",
			"rotation":[
				-0.70710688829422,
				0,
				0,
				0.7071066498756409
			],
			"scale":[
				100,
				99.99999237060547,
				99.99999237060547
			]
		},
		{
			"children":[
				3,
				5
			],
			"name":"RootNode"
		},
		{
			"children":[
				6
			],
			"name":"5e02c9e22c09485883e55c6d5bf1bded.fbx",
			"rotation":[
				0.70710688829422,
				0,
				0,
				0.7071066498756409
			],
			"scale":[
				0.009999999776482582,
				0.010000000707805157,
				0.010000000707805157
			]
		},
		{
			"children":[
				7
			],
			"name":"Sketchfab_model",
			"rotation":[
				-0.70710688829422,
				0,
				0,
				0.7071066498756409
			]
		}
	],
	"materials":[
		{
			"alphaCutoff":0.6499999761581421,
			"alphaMode":"MASK",
			"doubleSided":true,
			"emissiveFactor":[
				1,
				1,
				1
			],
			"emissiveTexture":{
				"index":0,
				"texCoord":1
			},
			"extensions":{
				"KHR_materials_specular":{
					"specularFactor":0
				}
			},
			"name":"Base_Material",
			"pbrMetallicRoughness":{
				"baseColorFactor":[
					0,
					0,
					0,
					1
				],
				"baseColorTexture":{
					"index":1
				},
				"metallicFactor":0
			}
		},
		{
			"alphaCutoff":0.6000000238418579,
			"alphaMode":"MASK",
			"emissiveFactor":[
				1,
				1,
				1
			],
			"emissiveTexture":{
				"index":2,
				"texCoord":1
			},
			"extensions":{
				"KHR_materials_specular":{
					"specularFactor":0
				}
			},
			"name":"VFX_Material",
			"pbrMetallicRoughness":{
				"baseColorFactor":[
					0,
					0,
					0,
					1
				],
				"baseColorTexture":{
					"index":3
				},
				"metallicFactor":0
			}
		}
	],
	"meshes":[
		{
			"name":"Base_Mesh_Base_Material_0",
			"primitives":[
				{
					"attributes":{
						"POSITION":0,
						"NORMAL":1,
						"TEXCOORD_0":2,
						"TEXCOORD_1":3
					},
					"indices":4,
					"material":0
				}
			]
		},
		{
			"name":"Base_Mesh_Base_Material_0.001",
			"primitives":[
				{
					"attributes":{
						"POSITION":5,
						"NORMAL":6,
						"TEXCOORD_0":7,
						"TEXCOORD_1":8
					},
					"indices":9,
					"material":0
				}
			]
		},
		{
			"name":"Base_Mesh_Base_Material_0.002",
			"primitives":[
				{
					"attributes":{
						"POSITION":10,
						"NORMAL":11,
						"TEXCOORD_0":12,
						"TEXCOORD_1":13
					},
					"indices":14,
					"material":0
				}
			]
		},
		{
			"name":"VFX_Mesh_VFX_Material_0",
			"primitives":[
				{
					"attributes":{
						"POSITION":15,
						"NORMAL":16,
						"TEXCOORD_0":17,
						"TEXCOORD_1":18
					},
					"indices":19,
					"material":1
				}
			]
		}
	],
	"textures":[
		{
			"sampler":0,
			"source":0
		},
		{
			"sampler":0,
			"source":1
		},
		{
			"sampler":0,
			"source":0
		},
		{
			"sampler":0,
			"source":2
		}
	],
	"images":[
		{
			"mimeType":"image/png",
			"name":"Base_Material_emissive",
			"uri":"Base_Material_emissive.png"
		},
		{
			"mimeType":"image/png",
			"name":"Base_Material_baseColor",
			"uri":"Base_Material_baseColor.png"
		},
		{
			"mimeType":"image/png",
			"name":"VFX_Material_baseColor",
			"uri":"VFX_Material_baseColor.png"
		}
	],
	"accessors":[
		{
			"bufferView":0,
			"componentType":5126,
			"count":68397,
			"max":[
				16.834733963012695,
				13.065399169921875,
				14.046164512634277
			],
			"min":[
				-9.238807678222656,
				-11.168193817138672,
				-5.867332175668594e-10
			],
			"type":"VEC3"
		},
		{
			"bufferView":1,
			"componentType":5126,
			"count":68397,
			"type":"VEC3"
		},
		{
			"bufferView":2,
			"componentType":5126,
			"count":68397,
			"type":"VEC2"
		},
		{
			"bufferView":3,
			"componentType":5126,
			"count":68397,
			"type":"VEC2"
		},
		{
			"bufferView":4,
			"componentType":5125,
			"count":76989,
			"type":"SCALAR"
		},
		{
			"bufferView":5,
			"componentType":5126,
			"count":65533,
			"max":[
				16.143613815307617,
				14.070610046386719,
				12.73620891571045
			],
			"min":[
				-9.248114585876465,
				-12.197245597839355,
				-0.030355358496308327
			],
			"type":"VEC3"
		},
		{
			"bufferView":6,
			"componentType":5126,
			"count":65533,
			"type":"VEC3"
		},
		{
			"bufferView":7,
			"componentType":5126,
			"count":65533,
			"type":"VEC2"
		},
		{
			"bufferView":8,
			"componentType":5126,
			"count":65533,
			"type":"VEC2"
		},
		{
			"bufferView":9,
			"componentType":5123,
			"count":65991,
			"type":"SCALAR"
		},
		{
			"bufferView":10,
			"componentType":5126,
			"count":33894,
			"max":[
				14.467158317565918,
				13.692361831665039,
				13.752413749694824
			],
			"min":[
				-7.28912878036499,
				-11.907526969909668,
				0.0007125630509108305
			],
			"type":"VEC3"
		},
		{
			"bufferView":11,
			"componentType":5126,
			"count":33894,
			"type":"VEC3"
		},
		{
			"bufferView":12,
			"componentType":5126,
			"count":33894,
			"type":"VEC2"
		},
		{
			"bufferView":13,
			"componentType":5126,
			"count":33894,
			"type":"VEC2"
		},
		{
			"bufferView":14,
			"componentType":5123,
			"count":33894,
			"type":"SCALAR"
		},
		{
			"bufferView":15,
			"componentType":5126,
			"count":6326,
			"max":[
				9.765897750854492,
				9.22117805480957,
				9.933208465576172
			],
			"min":[
				-7.189431667327881,
				-8.29068374633789,
				0.12583060562610626
			],
			"type":"VEC3"
		},
		{
			"bufferView":16,
			"componentType":5126,
			"count":6326,
			"type":"VEC3"
		},
		{
			"bufferView":17,
			"componentType":5126,
			"count":6326,
			"type":"VEC2"
		},
		{
			"bufferView":18,
			"componentType":5126,
			"count":6326,
			"type":"VEC2"
		},
		{
			"bufferView":19,
			"componentType":5123,
			"count":7896,
			"type":"SCALAR"
		}
	],
	"bufferViews":[
		{
			"buffer":0,
			"byteLength":820764,
			"byteOffset":0,
			"target":34962
		},
		{
			"buffer":0,
			"byteLength":820764,
			"byteOffset":820764,
			"target":34962
		},
		{
			"buffer":0,
			"byteLength":547176,
			"byteOffset":1641528,
			"target":34962
		},
		{
			"buffer":0,
			"byteLength":547176,
			"byteOffset":2188704,
			"target":34962
		},
		{
			"buffer":0,
			"byteLength":307956,
			"byteOffset":2735880,
			"target":34963
		},
		{
			"buffer":0,
			"byteLength":786396,
			"byteOffset":3043836,
			"target":34962
		},
		{
			"buffer":0,
			"byteLength":786396,
			"byteOffset":3830232,
			"target":34962
		},
		{
			"buffer":0,
			"byteLength":524264,
			"byteOffset":4616628,
			"target":34962
		},
		{
			"buffer":0,
			"byteLength":524264,
			"byteOffset":5140892,
			"target":34962
		},
		{
			"buffer":0,
			"byteLength":131982,
			"byteOffset":5665156,
			"target":34963
		},
		{
			"buffer":0,
			"byteLength":406728,
			"byteOffset":5797140,
			"target":34962
		},
		{
			"buffer":0,
			"byteLength":406728,
			"byteOffset":6203868,
			"target":34962
		},
		{
			"buffer":0,
			"byteLength":271152,
			"byteOffset":6610596,
			"target":34962
		},
		{
			"buffer":0,
			"byteLength":271152,
			"byteOffset":6881748,
			"target":34962
		},
		{
			"buffer":0,
			"byteLength":67788,
			"byteOffset":7152900,
			"target":34963
		},
		{
			"buffer":0,
			"byteLength":75912,
			"byteOffset":7220688,
			"target":34962
		},
		{
			"buffer":0,
			"byteLength":75912,
			"byteOffset":7296600,
			"target":34962
		},
		{
			"buffer":0,
			"byteLength":50608,
			"byteOffset":7372512,
			"target":34962
		},
		{
			"buffer":0,
			"byteLength":50608,
			"byteOffset":7423120,
			"target":34962
		},
		{
			"buffer":0,
			"byteLength":15792,
			"byteOffset":7473728,
			"target":34963
		}
	],
	"samplers":[
		{
			"magFilter":9729,
			"minFilter":9987
		}
	],
	"buffers":[
		{
			"byteLength":7489520,
			"uri":"scene.bin"
		}
	]
}
