<?xml version="1.0" standalone="no"?>
<!DOCTYPE svg PUBLIC "-//W3C//DTD SVG 20010904//EN"
 "http://www.w3.org/TR/2001/REC-SVG-20010904/DTD/svg10.dtd">
<svg version="1.0" xmlns="http://www.w3.org/2000/svg"
 width="32.000000pt" height="32.000000pt" viewBox="0 0 32.000000 32.000000"
 preserveAspectRatio="xMidYMid meet">

<g transform="translate(0.000000,32.000000) scale(0.100000,-0.100000)"
fill="#000000" stroke="none">
<path d="M0 160 l0 -160 160 0 160 0 0 160 0 160 -160 0 -160 0 0 -160z m149
41 c2 -58 1 -59 -30 -70 -42 -14 -46 -14 -53 5 -5 14 -4 15 8 5 12 -10 20 -10
38 0 l23 12 -23 10 c-12 6 -22 16 -22 23 0 7 -2 19 -5 27 -5 11 32 39 61 47 0
0 2 -26 3 -59z m63 39 c23 -11 26 -18 21 -39 -6 -26 -20 -41 -38 -41 -5 1 -2
5 8 11 22 13 22 26 -3 39 -18 10 -20 8 -20 -19 0 -39 41 -71 65 -51 13 11 14
10 9 -4 -7 -19 -11 -19 -53 -5 -31 11 -32 12 -30 70 1 32 5 57 8 56 3 -2 18
-9 33 -17z"/>
<path d="M115 207 c-19 -15 -13 -37 11 -37 8 0 14 10 14 25 0 29 0 29 -25 12z"/>
</g>
</svg>
